# xmcd CD database file
#
# Track frame offsets:
#	183
#	12770
#	25635
#	36190
#	47838
#	59168
#	72133
#	85260
#	96775
#	109373
#	121468
#	133108
#	144120
#	155910
#	167885
#	177678
#	189970
#	201248
#	211858
#	221420
#	232743
#	242735
#
# Disc length: 3423 seconds
#
# Revision: 3
# Processed by: cddbd v1.5.2PL0 Copyright (c) Steve Scherf et al.
# Submitted via: CDex 1.70beta2
#
DISCID=3c0d5d16
DTITLE=Jim Reeves - Country Classics - CD 1 - (Jim Reeves sings romantic favourites)
DYEAR=1962
DGENRE=Country
TTITLE0=I Love You Because - (1963)
TTITLE1=Distant Drums - (1966)
TTITLE2=He'll Have To Go - (1959)
TTITLE3=Welcome To My World - (1964)
TTITLE4=My Happiness - (1957)
TTITLE5=Have I Told You Lately That I Love You - (1956)
TTITLE6=You'll Never Know - (1965)
TTITLE7=Carolina Moon
TTITLE8=I Can't Stop Loving You - (1965)
TTITLE9=Maria Elena - (1958)
TTITLE10=You Belong To Me - (1957)
TTITLE11=Moonlight And Roses (Bring Mem'ries Of You) - (1958)
TTITLE12=Have You Ever Been Lonely (Have You Ever Been Blue )
TTITLE13=Mona Lisa - (1958)
TTITLE14=Charmaine - (1962)
TTITLE15=Blue Skies - (1965)
TTITLE16=Moon River - (1963)
TTITLE17=Memories Are Made Of This - (1958)
TTITLE18=Ramona - (1964)
TTITLE19=Mexicali Rose - (1959)
TTITLE20=A Fool Such As I - (1963)
TTITLE21=Auf Wiederseh'n Sweetheart - (1963)
EXTD=YEAR: 1962
EXTT0=Payne
EXTT1=
EXTT2=
EXTT3=
EXTT4=
EXTT5=
EXTT6=
EXTT7=
EXTT8=
EXTT9=
EXTT10=
EXTT11=
EXTT12=
EXTT13=
EXTT14=
EXTT15=
EXTT16=
EXTT17=
EXTT18=
EXTT19=
EXTT20=
EXTT21=
PLAYORDER=
